<svg xmlns="http://www.w3.org/2000/svg" xmlns:xlink="http://www.w3.org/1999/xlink" viewBox="0 0 172.87 194.53"><defs><style>.cls-1{fill:none;}.cls-2{isolation:isolate;}.cls-3{clip-path:url(#clip-path);}.cls-4{mix-blend-mode:multiply;}.cls-5{clip-path:url(#clip-path-3);}.cls-6{fill:#0d9;}.cls-7{clip-path:url(#clip-path-4);}</style><clipPath id="clip-path" transform="translate(-0.73 -0.74)"><rect class="cls-1" x="0.74" y="0.74" width="173" height="194.53"/></clipPath><clipPath id="clip-path-3" transform="translate(-0.73 -0.74)"><rect class="cls-1" width="174.48" height="196.02"/></clipPath><clipPath id="clip-path-4" transform="translate(-0.73 -0.74)"><rect class="cls-1" width="45.29" height="196.02"/></clipPath></defs><title>Asset 2</title><g class="cls-2"><g id="Layer_2" data-name="Layer 2"><g id="Ebene_1" data-name="Ebene 1"><g class="cls-3"><g class="cls-3"><g class="cls-4"><g class="cls-5"><path class="cls-6" d="M173.59,98.12C173.59,21.84,129.23.74,80.81.74H18.93C9.8.74,1.43,8.16.77,17.26A17.84,17.84,0,0,0,18.56,36.41v0H82.1c32.43,0,47,23.24,47,61.63,0,30-11.35,61.63-46.76,61.63H18.56v0A17.81,17.81,0,1,0,19,195.27H80c59.24,0,93.59-35.71,93.59-97.38" transform="translate(-0.73 -0.74)"/></g></g><g class="cls-4"><g class="cls-7"><path class="cls-6" d="M44.55,177.45V18.58A17.84,17.84,0,0,0,26.71.74H18.58A17.84,17.84,0,0,0,.74,18.58V177.44a17.84,17.84,0,0,0,17.84,17.84h8.27a17.76,17.76,0,0,0,17.7-17.82" transform="translate(-0.73 -0.74)"/></g></g></g></g></g></g></g></svg>